<svg width="779" height="307" viewBox="0 0 779 307" fill="none" xmlns="http://www.w3.org/2000/svg">
<path d="M33.2921 112.901L67.5707 147.179" stroke="#00FFFF" stroke-width="4"/>
<path d="M48.197 127.46V167.007" stroke="#00FFFF" stroke-width="4"/>
<circle cx="48.1306" cy="127.669" r="6.65272" fill="#00FFFF"/>
<circle cx="67.6438" cy="146.511" r="6.65272" fill="#00FFFF"/>
<circle cx="48.1306" cy="166.024" r="6.65272" fill="#00FFFF"/>
<rect x="48" y="100.828" width="63.8822" height="63.8822" transform="rotate(45 48 100.828)" stroke="#00FFFF" stroke-width="4"/>
<path d="M715.906 112.901L750.185 147.179" stroke="#00FFFF" stroke-width="4"/>
<path d="M715.906 112.901L750.185 147.179" stroke="#00FFFF" stroke-width="4"/>
<path d="M730.811 127.46V167.007" stroke="white" stroke-width="4"/>
<circle cx="730.745" cy="127.669" r="6.65272" fill="#00FFFF"/>
<circle cx="750.258" cy="146.511" r="6.65272" fill="#00FFFF"/>
<circle cx="730.745" cy="166.024" r="6.65272" fill="white"/>
<rect x="730.614" y="100.828" width="63.8822" height="63.8822" transform="rotate(45 730.614 100.828)" stroke="#00FFFF" stroke-width="4"/>
<path d="M389.911 154.836C395.074 154.836 398.134 153.23 400.888 150.285L397.14 146.269C395.036 148.181 393.162 149.405 390.102 149.405C385.513 149.405 382.338 145.58 382.338 140.991C382.338 136.325 385.589 132.577 390.102 132.577C393.162 132.577 394.921 133.686 396.987 135.56L400.505 131.506C398.019 129.058 395.189 127.146 390.14 127.146C381.917 127.146 376.18 133.38 376.18 140.991C376.18 148.755 382.032 154.836 389.911 154.836Z" fill="white"/>
<path d="M400.697 145.8H402.295L402.698 143.396H405.147L404.729 145.8H406.327L406.745 143.396H408.507V141.842H407.014L407.447 139.244H409.045V137.691H407.715L408.119 135.346H406.521L406.133 137.691H403.683L404.087 135.346H402.489L402.086 137.691H400.323V139.244H401.817L401.384 141.842H399.771V143.396H401.115L400.697 145.8ZM402.967 141.842L403.415 139.244H405.864L405.416 141.842H402.967Z" fill="white"/>
<path d="M365.264 126.719L390 112.437L414.736 126.719V155.282L390 169.563L365.264 155.282V126.719Z" stroke="white" stroke-width="2.48891"/>
<path d="M378.107 21.3852V25.0752H385.007V36.0252C385.007 38.0652 384.107 39.0252 382.577 39.0252C380.777 39.0252 379.967 37.7652 379.637 35.9952L375.377 36.8652C376.037 40.3452 378.287 42.6852 382.577 42.6852C386.837 42.6852 389.567 40.2552 389.567 36.4752V21.3852H378.107ZM400.896 42.6852C406.146 42.6852 408.906 39.8052 408.906 35.8752C408.906 32.5752 406.956 30.5952 403.596 29.9952L401.406 29.6052C399.366 29.2452 398.526 28.6152 398.526 27.1752C398.526 25.5252 399.546 24.6852 401.556 24.6852C403.446 24.6852 405.006 25.4352 406.116 26.6652L408.666 23.8152C407.196 22.1052 404.736 21.0252 401.526 21.0252C396.786 21.0252 393.996 23.3652 393.996 27.3852C393.996 30.4452 395.586 32.7552 399.336 33.3852L401.526 33.7452C403.566 34.0752 404.346 34.7652 404.346 36.2352C404.346 38.0352 403.176 39.0252 401.046 39.0252C399.186 39.0252 397.296 38.2452 395.766 36.5652L393.156 39.4452C394.746 41.4252 397.416 42.6852 400.896 42.6852Z" fill="white"/>
<rect x="366.349" y="1.34887" width="47.3023" height="47.3022" stroke="white" stroke-width="2.69774"/>
<path d="M313.707 31.2929C314.098 31.6834 314.098 32.3166 313.707 32.7071L307.343 39.0711C306.953 39.4616 306.319 39.4616 305.929 39.0711C305.538 38.6805 305.538 38.0474 305.929 37.6569L311.586 32L305.929 26.3431C305.538 25.9526 305.538 25.3195 305.929 24.9289C306.319 24.5384 306.953 24.5384 307.343 24.9289L313.707 31.2929ZM48 32L47 32L47 31L48 31L48 32ZM313 33L48 33L48 31L313 31L313 33ZM49 32L49 82L47 82L47 32L49 32Z" fill="#00FFFF"/>
<path d="M313.707 260.707C314.098 260.317 314.098 259.683 313.707 259.293L307.343 252.929C306.953 252.538 306.319 252.538 305.929 252.929C305.538 253.319 305.538 253.953 305.929 254.343L311.586 260L305.929 265.657C305.538 266.047 305.538 266.681 305.929 267.071C306.319 267.462 306.953 267.462 307.343 267.071L313.707 260.707ZM48 260L47 260L47 261L48 261L48 260ZM313 259L48 259L48 261L313 261L313 259ZM49 260L49 210L47 210L47 260L49 260Z" fill="#00FFFF"/>
<path d="M313.707 146.707C314.098 146.317 314.098 145.683 313.707 145.293L307.343 138.929C306.953 138.538 306.319 138.538 305.929 138.929C305.538 139.319 305.538 139.953 305.929 140.343L311.586 146L305.929 151.657C305.538 152.047 305.538 152.681 305.929 153.071C306.319 153.462 306.953 153.462 307.343 153.071L313.707 146.707ZM112 147L313 147L313 145L112 145L112 147Z" fill="#00FFFF"/>
<path d="M313.707 31.2929C314.098 31.6834 314.098 32.3166 313.707 32.7071L307.343 39.0711C306.953 39.4616 306.319 39.4616 305.929 39.0711C305.538 38.6805 305.538 38.0474 305.929 37.6569L311.586 32L305.929 26.3431C305.538 25.9526 305.538 25.3195 305.929 24.9289C306.319 24.5384 306.953 24.5384 307.343 24.9289L313.707 31.2929ZM48 32L47 32L47 31L48 31L48 32ZM313 33L48 33L48 31L313 31L313 33ZM49 32L49 82L47 82L47 32L49 32Z" fill="#00FFFF"/>
<path d="M313.707 260.707C314.098 260.317 314.098 259.683 313.707 259.293L307.343 252.929C306.953 252.538 306.319 252.538 305.929 252.929C305.538 253.319 305.538 253.953 305.929 254.343L311.586 260L305.929 265.657C305.538 266.047 305.538 266.681 305.929 267.071C306.319 267.462 306.953 267.462 307.343 267.071L313.707 260.707ZM48 260L47 260L47 261L48 261L48 260ZM313 259L48 259L48 261L313 261L313 259ZM49 260L49 210L47 210L47 260L49 260Z" fill="#00FFFF"/>
<path d="M313.707 146.707C314.098 146.317 314.098 145.683 313.707 145.293L307.343 138.929C306.953 138.538 306.319 138.538 305.929 138.929C305.538 139.319 305.538 139.953 305.929 140.343L311.586 146L305.929 151.657C305.538 152.047 305.538 152.681 305.929 153.071C306.319 153.462 306.953 153.462 307.343 153.071L313.707 146.707ZM112 147L313 147L313 145L112 145L112 147Z" fill="#00FFFF"/>
<path d="M730.455 32L731.455 32L731.455 31L730.455 31L730.455 32ZM729.748 82.7071C730.139 83.0977 730.772 83.0977 731.162 82.7071L737.526 76.3432C737.917 75.9526 737.917 75.3195 737.526 74.929C737.136 74.5384 736.502 74.5384 736.112 74.929L730.455 80.5858L724.798 74.929C724.408 74.5384 723.775 74.5384 723.384 74.929C722.993 75.3195 722.993 75.9526 723.384 76.3432L729.748 82.7071ZM465.455 33L730.455 33L730.455 31L465.455 31L465.455 33ZM729.455 32L729.455 82L731.455 82L731.455 32L729.455 32Z" fill="#00FFFF"/>
<path d="M730.455 260L731.455 260L731.455 261L730.455 261L730.455 260ZM729.748 209.293C730.139 208.902 730.772 208.902 731.162 209.293L737.526 215.657C737.917 216.047 737.917 216.681 737.526 217.071C737.136 217.462 736.502 217.462 736.112 217.071L730.455 211.414L724.798 217.071C724.408 217.462 723.775 217.462 723.384 217.071C722.993 216.681 722.993 216.047 723.384 215.657L729.748 209.293ZM465.455 259L730.455 259L730.455 261L465.455 261L465.455 259ZM729.455 260L729.455 210L731.455 210L731.455 260L729.455 260Z" fill="#00FFFF"/>
<path d="M667.162 145.293C667.553 145.683 667.553 146.317 667.162 146.707L660.798 153.071C660.408 153.462 659.775 153.462 659.384 153.071C658.993 152.681 658.993 152.047 659.384 151.657L665.041 146L659.384 140.343C658.993 139.953 658.993 139.319 659.384 138.929C659.775 138.538 660.408 138.538 660.798 138.929L667.162 145.293ZM666.455 147L465.455 147L465.455 145L666.455 145L666.455 147Z" fill="#00FFFF"/>
<path d="M730.455 32L731.455 32L731.455 31L730.455 31L730.455 32ZM729.748 82.7071C730.139 83.0977 730.772 83.0977 731.162 82.7071L737.526 76.3432C737.917 75.9526 737.917 75.3195 737.526 74.929C737.136 74.5384 736.502 74.5384 736.112 74.929L730.455 80.5858L724.798 74.929C724.408 74.5384 723.775 74.5384 723.384 74.929C722.993 75.3195 722.993 75.9526 723.384 76.3432L729.748 82.7071ZM465.455 33L730.455 33L730.455 31L465.455 31L465.455 33ZM729.455 32L729.455 82L731.455 82L731.455 32L729.455 32Z" fill="#00FFFF"/>
<path d="M730.455 260L731.455 260L731.455 261L730.455 261L730.455 260ZM729.748 209.293C730.139 208.902 730.772 208.902 731.162 209.293L737.526 215.657C737.917 216.047 737.917 216.681 737.526 217.071C737.136 217.462 736.502 217.462 736.112 217.071L730.455 211.414L724.798 217.071C724.408 217.462 723.775 217.462 723.384 217.071C722.993 216.681 722.993 216.047 723.384 215.657L729.748 209.293ZM465.455 259L730.455 259L730.455 261L465.455 261L465.455 259ZM729.455 260L729.455 210L731.455 210L731.455 260L729.455 260Z" fill="#00FFFF"/>
<path d="M667.162 145.293C667.553 145.683 667.553 146.317 667.162 146.707L660.798 153.071C660.408 153.462 659.775 153.462 659.384 153.071C658.993 152.681 658.993 152.047 659.384 151.657L665.041 146L659.384 140.343C658.993 139.953 658.993 139.319 659.384 138.929C659.775 138.538 660.408 138.538 660.798 138.929L667.162 145.293ZM666.455 147L465.455 147L465.455 145L666.455 145L666.455 147Z" fill="#00FFFF"/>
<path d="M390.596 97.2071C390.986 97.5976 391.619 97.5976 392.01 97.2071L398.374 90.8431C398.764 90.4526 398.764 89.8195 398.374 89.4289C397.983 89.0384 397.35 89.0384 396.96 89.4289L391.303 95.0858L385.646 89.4289C385.255 89.0384 384.622 89.0384 384.232 89.4289C383.841 89.8195 383.841 90.4526 384.232 90.8431L390.596 97.2071ZM392.01 63.7929C391.619 63.4024 390.986 63.4024 390.596 63.7929L384.232 70.1569C383.841 70.5474 383.841 71.1805 384.232 71.5711C384.622 71.9616 385.255 71.9616 385.646 71.5711L391.303 65.9142L396.96 71.5711C397.35 71.9616 397.983 71.9616 398.374 71.5711C398.764 71.1805 398.764 70.5474 398.374 70.1569L392.01 63.7929ZM392.303 96.5L392.303 64.5L390.303 64.5L390.303 96.5L392.303 96.5Z" fill="#00FFFF"/>
<path d="M390.596 217.824C390.986 218.214 391.619 218.214 392.01 217.824L398.374 211.46C398.764 211.069 398.764 210.436 398.374 210.046C397.983 209.655 397.35 209.655 396.96 210.046L391.303 215.702L385.646 210.046C385.255 209.655 384.622 209.655 384.232 210.046C383.841 210.436 383.841 211.069 384.232 211.46L390.596 217.824ZM392.01 184.41C391.619 184.019 390.986 184.019 390.596 184.41L384.232 190.774C383.841 191.164 383.841 191.797 384.232 192.188C384.622 192.578 385.255 192.578 385.646 192.188L391.303 186.531L396.96 192.188C397.35 192.578 397.983 192.578 398.374 192.188C398.764 191.797 398.764 191.164 398.374 190.774L392.01 184.41ZM392.303 217.117L392.303 185.117L390.303 185.117L390.303 217.117L392.303 217.117Z" fill="#00FFFF"/>
<path d="M407.231 274.663C407.231 275.218 406.897 275.858 406.036 276.541C405.182 277.218 403.904 277.859 402.26 278.41C398.981 279.511 394.406 280.204 389.319 280.204C384.233 280.204 379.657 279.511 376.378 278.41C374.735 277.859 373.456 277.218 372.602 276.541C371.741 275.858 371.407 275.218 371.407 274.663V270.108C371.508 270.199 371.613 270.288 371.722 270.374C372.753 271.192 374.201 271.897 375.928 272.477C379.387 273.638 384.122 274.344 389.319 274.344C394.516 274.344 399.251 273.638 402.711 272.477C404.437 271.897 405.885 271.192 406.916 270.374C407.025 270.288 407.13 270.199 407.231 270.108V274.663Z" fill="white" stroke="white" stroke-width="1.41537"/>
<path d="M407.231 262.192C407.231 262.747 406.897 263.386 406.036 264.069C405.182 264.747 403.904 265.387 402.26 265.939C398.981 267.039 394.406 267.732 389.319 267.732C384.233 267.732 379.657 267.039 376.378 265.939C374.735 265.387 373.456 264.747 372.602 264.069C371.741 263.386 371.407 262.747 371.407 262.192V257.637C371.508 257.728 371.613 257.816 371.722 257.903C372.753 258.721 374.201 259.426 375.928 260.005C379.387 261.166 384.122 261.872 389.319 261.872C394.516 261.872 399.251 261.166 402.711 260.005C404.437 259.426 405.885 258.721 406.916 257.903C407.025 257.816 407.13 257.728 407.231 257.637V262.192Z" fill="white" stroke="white" stroke-width="1.41537"/>
<path d="M407.231 249.72C407.231 250.275 406.897 250.915 406.036 251.598C405.182 252.275 403.904 252.916 402.26 253.467C398.981 254.568 394.406 255.261 389.319 255.261C384.233 255.261 379.657 254.568 376.378 253.467C374.735 252.916 373.456 252.275 372.602 251.598C371.741 250.915 371.407 250.275 371.407 249.72V245.165C371.508 245.256 371.613 245.345 371.722 245.431C372.753 246.249 374.201 246.954 375.928 247.534C379.387 248.695 384.122 249.4 389.319 249.4C394.516 249.4 399.251 248.695 402.711 247.534C404.437 246.954 405.885 246.249 406.916 245.431C407.025 245.345 407.13 245.256 407.231 245.165V249.72Z" fill="white" stroke="white" stroke-width="1.41537"/>
<ellipse cx="389.319" cy="237.248" rx="18.6201" ry="6.24822" fill="white"/>
<path d="M374.637 302.184C378.611 302.184 380.701 300.003 380.701 297.028C380.701 294.53 379.224 293.031 376.681 292.577L375.023 292.282C373.479 292.009 372.843 291.532 372.843 290.442C372.843 289.193 373.615 288.557 375.137 288.557C376.567 288.557 377.748 289.125 378.589 290.056L380.519 287.898C379.406 286.604 377.544 285.786 375.114 285.786C371.525 285.786 369.413 287.558 369.413 290.601C369.413 292.918 370.617 294.666 373.456 295.143L375.114 295.416C376.658 295.666 377.249 296.188 377.249 297.301C377.249 298.664 376.363 299.413 374.75 299.413C373.342 299.413 371.912 298.822 370.753 297.551L368.777 299.731C369.981 301.23 372.002 302.184 374.637 302.184ZM393.637 303.819H389.981V302.047C393.206 301.412 394.705 298.527 394.705 293.985C394.705 288.807 392.751 285.786 388.504 285.786C384.257 285.786 382.304 288.807 382.304 293.985C382.304 298.527 383.803 301.412 387.028 302.047V302.979C387.028 304.954 387.959 306.249 390.412 306.249H393.637V303.819ZM388.504 299.436C386.574 299.436 385.938 297.914 385.938 295.37V292.6C385.938 290.056 386.574 288.534 388.504 288.534C390.435 288.534 391.071 290.056 391.071 292.6V295.348C391.071 297.914 390.435 299.436 388.504 299.436ZM407.641 301.911V299.118H400.828V286.059H397.398V301.911H407.641Z" fill="white"/>
</svg>
