<svg width="121" height="120" viewBox="0 0 121 120" fill="none" xmlns="http://www.w3.org/2000/svg">
<rect x="118.902" y="2" width="116" height="116" rx="58" transform="rotate(90 118.902 2)" stroke="#00FFFF" stroke-width="4"/>
<path fill-rule="evenodd" clip-rule="evenodd" d="M82.0534 41.692L83.9569 43.5956L81.8882 45.6643C79.6735 45.9233 77.6147 46.683 75.8245 47.827C73.2769 49.464 71.1019 51.6175 68.9421 54.0154C68.2528 54.7806 67.5515 55.5875 66.8376 56.4089L66.8374 56.4091L66.8373 56.4092C66.4212 56.8879 66.0009 57.3716 65.576 57.8548L65.496 55.0325L62.7468 55.1104C63.0757 54.7348 63.405 54.3555 63.7373 53.9729C64.4737 53.125 65.2246 52.2603 66.017 51.3806C68.2496 48.902 70.7044 46.437 73.699 44.5133L73.7028 44.5109C76.1523 42.9452 78.9985 41.9445 82.0534 41.692ZM84.2283 41.64L86.1839 43.5956L84.2008 45.5786C91.3208 45.8773 97.1076 51.3334 97.9224 58.3081L99.9883 60.374L101.894 58.468C101.133 49.2494 93.5652 41.9612 84.2283 41.64ZM85.9851 74.2378C92.6173 73.128 97.7174 67.4962 98.0075 60.6203L99.9883 62.601L101.946 60.6429C101.632 69.7932 94.6266 77.2445 85.6702 78.2562L83.8185 76.4045L85.9851 74.2378ZM83.5596 74.4364C80.7091 74.4314 78.0578 73.6023 75.8245 72.1751C74.4887 71.3167 73.3087 70.2528 72.0883 69.0414C71.7005 68.6564 71.2957 68.2426 70.8776 67.8153L70.8775 67.8153L70.8775 67.8152L70.8775 67.8152L70.8774 67.8152L70.8774 67.8151L70.8774 67.8151L70.8773 67.8151C70.5359 67.4661 70.1857 67.1081 69.8287 66.7495H67.0232V69.5105C67.334 69.823 67.6423 70.1385 67.9557 70.4592L67.9559 70.4593L67.956 70.4595L67.9565 70.46L67.9566 70.4601L67.9566 70.4601L67.9566 70.4601L67.9567 70.4602L67.9567 70.4602L67.9567 70.4602C68.3929 70.9065 68.8389 71.3629 69.3149 71.8353C70.6031 73.1141 72.0144 74.4066 73.6988 75.4887L73.7026 75.4912C76.5507 77.3116 79.9352 78.3683 83.5602 78.3731L81.5915 76.4045L83.5596 74.4364ZM41.8369 46.0418L39.3907 43.5956L41.1242 41.8621C46.8242 42.8166 50.6514 46.5361 54.5853 50.3593L54.5854 50.3594C55.2467 51.0021 55.911 51.6477 56.5877 52.2836L56.5717 52.3007H53.7766V55.0441C53.0722 54.3807 52.4054 53.7394 51.7661 53.1246L51.7652 53.1237L51.7651 53.1236L51.7649 53.1234C48.1869 49.6822 45.4712 47.0703 41.8369 46.0418ZM39.1607 45.5925C38.8584 45.5736 38.549 45.564 38.2318 45.564C31.2006 45.564 25.3435 50.591 24.0586 57.247L21.8281 59.4775L20.0076 57.657C21.158 48.6164 28.8787 41.6272 38.2318 41.6272C38.5298 41.6272 38.8229 41.6342 39.1114 41.648L37.1638 43.5956L39.1607 45.5925ZM21.8281 61.7044L23.7989 59.7337C23.7973 59.822 23.7965 59.9106 23.7965 59.9993C23.7965 67.3401 29.2759 73.4011 36.3678 74.3154L38.4569 76.4045L36.5646 78.2968C27.1993 77.4543 19.8597 69.5839 19.8597 59.9993C19.8597 59.912 19.8603 59.8249 19.8616 59.7379L21.8281 61.7044ZM38.7234 78.3649C42.1721 78.2742 45.3888 77.2315 48.1143 75.4895L48.1181 75.487C51.1126 73.5633 53.5675 71.0983 55.8001 68.6197C56.5924 67.7401 57.3432 66.8755 58.0795 66.0277L58.0797 66.0275C59.4776 64.4179 60.8229 62.8688 62.2996 61.392L62.3004 61.3928C62.8915 60.8017 63.4743 60.1866 64.049 59.56L63.9666 56.6512L61.3073 56.7265C60.7246 57.3658 60.1324 57.9933 59.5175 58.6083L59.5167 58.6076C57.9473 60.177 56.437 61.9145 54.9798 63.5911L54.9792 63.5918C54.2653 64.4131 53.5642 65.2198 52.875 65.985C50.715 68.383 48.5399 70.5366 45.9921 72.1737C43.8765 73.5254 41.386 74.3406 38.7064 74.427L40.6839 76.4045L38.7234 78.3649Z" fill="#00FFFF"/>
<path d="M28.716 63.9534H31.5505C33.9062 63.9534 35.04 62.3787 35.04 59.5568C35.04 56.7349 33.9062 55.1602 31.5505 55.1602H28.716V63.9534ZM30.5804 62.4668V56.6467H31.4245C32.5457 56.6467 33.0496 57.39 33.0496 58.7505V60.3504C33.0496 61.7236 32.5457 62.4668 31.4245 62.4668H30.5804ZM39.4191 64.1045C40.8174 64.1045 41.6992 63.5754 42.2031 62.9582L41.1953 61.8622C40.7922 62.3409 40.2505 62.6684 39.482 62.6684C38.4868 62.6684 37.9451 62.1015 37.9451 61.2701V61.1567H42.3921V60.6024C42.3921 58.5742 41.1953 57.3018 39.2553 57.3018C37.3027 57.3018 36.0933 58.5994 36.0933 60.7284C36.0933 62.807 37.2397 64.1045 39.4191 64.1045ZM39.2679 58.6372C40.0741 58.6372 40.5654 59.1663 40.5654 60.0103V60.1111H37.9451V60.0103C37.9451 59.1789 38.4616 58.6372 39.2679 58.6372ZM47.905 63.9534L50.2355 57.453H48.3459L47.5018 60.2371L46.8845 62.4039H46.7838L46.1665 60.2371L45.3224 57.453H43.3572L45.6878 63.9534H47.905Z" fill="white"/>
<path d="M75.1793 64.1045C77.535 64.1045 78.6184 62.4291 78.6184 59.5568C78.6184 56.6845 77.535 55.009 75.1793 55.009C72.8235 55.009 71.7401 56.6845 71.7401 59.5568C71.7401 62.4291 72.8235 64.1045 75.1793 64.1045ZM75.1793 62.5802C74.1085 62.5802 73.7557 61.7362 73.7557 60.3252V58.7883C73.7557 57.3774 74.1085 56.5334 75.1793 56.5334C76.2501 56.5334 76.6028 57.3774 76.6028 58.7883V60.3127C76.6028 61.7362 76.2501 62.5802 75.1793 62.5802ZM79.6969 66.4729H81.5613V62.7692H81.6495C81.9771 63.5502 82.5314 64.1045 83.577 64.1045C85.0131 64.1045 86.0209 63.0589 86.0209 60.7032C86.0209 58.3474 85.0131 57.3018 83.577 57.3018C82.5314 57.3018 81.9771 57.8561 81.6495 58.6372H81.5613V57.453H79.6969V66.4729ZM82.7707 62.6558C82.1156 62.6558 81.5613 62.3409 81.5613 61.6606V59.7458C81.5613 59.0655 82.1156 58.7505 82.7707 58.7505C83.6022 58.7505 84.0809 59.2922 84.0809 60.1993V61.2071C84.0809 62.1141 83.6022 62.6558 82.7707 62.6558ZM90.211 64.1045C92.1384 64.1045 93.2344 63.2479 93.2344 61.9C93.2344 60.6654 92.3148 60.1741 91.1432 59.9977L90.1102 59.8339C89.6063 59.7584 89.304 59.645 89.304 59.267C89.304 58.8387 89.6819 58.612 90.3874 58.612C91.2314 58.612 91.8487 58.9395 92.2266 59.3552L93.1589 58.297C92.6172 57.6671 91.7227 57.3018 90.4504 57.3018C88.5733 57.3018 87.4773 58.1207 87.4773 59.4812C87.4773 60.7158 88.3969 61.2071 89.5559 61.3835L90.6015 61.5472C91.1054 61.6228 91.4078 61.7362 91.4078 62.1015C91.4078 62.5676 90.9543 62.7944 90.2236 62.7944C89.3544 62.7944 88.6741 62.4668 88.1702 61.9126L87.1246 62.8826C87.6537 63.6384 88.7749 64.1045 90.211 64.1045Z" fill="white"/>
</svg>
