<svg width="120" height="120" viewBox="0 0 120 120" fill="none" xmlns="http://www.w3.org/2000/svg">
<rect x="118" y="2" width="116" height="116" rx="58" transform="rotate(90 118 2)" stroke="#00FFFF" stroke-width="4"/>
<path d="M30.1397 35.7661V49.2663C30.1397 50.1073 29.9876 50.8767 29.6834 51.5745C29.3972 52.2544 28.9767 52.836 28.422 53.3191C27.8852 53.8022 27.2321 54.1779 26.4627 54.4463C25.6933 54.6968 24.8345 54.8221 23.8861 54.8221C21.9716 54.8221 20.4865 54.3479 19.4308 53.3996C18.393 52.4334 17.731 51.1719 17.4447 49.6152L21.2559 48.8369C21.399 49.6421 21.6674 50.2952 22.0611 50.7962C22.4726 51.2972 23.081 51.5477 23.8861 51.5477C24.5661 51.5477 25.0939 51.333 25.4697 50.9035C25.8633 50.4562 26.0601 49.7763 26.0601 48.8637V39.0674H19.8871V35.7661H30.1397ZM40.2745 54.8221C38.6999 54.8221 37.3311 54.5626 36.1681 54.0437C35.005 53.5248 34.0657 52.8181 33.35 51.9234L35.685 49.3468C36.3649 50.0983 37.1075 50.653 37.9126 51.0109C38.7357 51.3687 39.5677 51.5477 40.4087 51.5477C41.3749 51.5477 42.1085 51.333 42.6095 50.9035C43.1105 50.4741 43.361 49.8568 43.361 49.0516C43.361 48.3896 43.1642 47.8886 42.7706 47.5486C42.3948 47.2086 41.7507 46.9671 40.8381 46.8239L38.8789 46.5019C37.1969 46.2156 35.9802 45.5983 35.2287 44.65C34.4772 43.6837 34.1015 42.5118 34.1015 41.134C34.1015 39.3268 34.6919 37.9312 35.8729 36.9471C37.0538 35.9451 38.7089 35.4441 40.8381 35.4441C42.2875 35.4441 43.5489 35.6677 44.6225 36.115C45.6961 36.5624 46.5639 37.1707 47.2259 37.9401L44.9446 40.4899C44.4436 39.9352 43.8531 39.5057 43.1732 39.2016C42.4932 38.8795 41.7238 38.7185 40.865 38.7185C39.0578 38.7185 38.1542 39.461 38.1542 40.9461C38.1542 41.5903 38.351 42.0734 38.7447 42.3954C39.1562 42.7175 39.8182 42.9591 40.7308 43.1201L42.69 43.469C44.2109 43.7374 45.3829 44.31 46.206 45.1867C47.0291 46.0635 47.4406 47.2444 47.4406 48.7295C47.4406 49.6063 47.2885 50.4204 46.9843 51.1719C46.6802 51.9055 46.2239 52.5497 45.6155 53.1044C45.0072 53.6411 44.2557 54.0616 43.361 54.3658C42.4843 54.67 41.4554 54.8221 40.2745 54.8221Z" fill="#00FFFF"/>
<path d="M79.9549 53.5452C77.4499 53.5452 75.589 52.7043 74.3723 51.0223C73.1735 49.3225 72.574 46.9338 72.574 43.8562C72.574 40.7786 73.1735 38.3989 74.3723 36.7169C75.589 35.0171 77.4499 34.1672 79.9549 34.1672C80.9211 34.1672 81.771 34.3014 82.5046 34.5698C83.2561 34.8203 83.9003 35.1781 84.437 35.6434C84.9738 36.1086 85.4122 36.6722 85.7522 37.3342C86.11 37.9963 86.3874 38.7388 86.5842 39.5619L82.8267 40.4745C82.7193 40.0271 82.5941 39.6156 82.4509 39.2398C82.3078 38.8641 82.1199 38.542 81.8873 38.2736C81.6726 38.0052 81.3952 37.7995 81.0553 37.6563C80.7332 37.4953 80.3396 37.4148 79.8744 37.4148C78.7829 37.4148 78.0045 37.8442 77.5393 38.7031C77.092 39.544 76.8683 40.716 76.8683 42.219V45.4934C76.8683 46.9964 77.092 48.1773 77.5393 49.0362C78.0045 49.8772 78.7829 50.2977 79.8744 50.2977C80.8048 50.2977 81.4758 50.0114 81.8873 49.4388C82.3167 48.8662 82.6299 48.1326 82.8267 47.238L86.5842 48.1505C86.3874 48.9736 86.11 49.7161 85.7522 50.3782C85.4122 51.0402 84.9738 51.6128 84.437 52.0959C83.9003 52.5611 83.2561 52.919 82.5046 53.1695C81.771 53.42 80.9211 53.5452 79.9549 53.5452ZM90.707 48.0163H87.8083V45.064H91.2438L91.6463 42.6484H88.8282V39.6961H92.1831L93.0957 34.4893H96.2359L92.9346 53.2231H89.7944L90.707 48.0163ZM98.3025 34.4893H101.443L100.53 39.6961H103.429V42.6484H99.9934L99.5908 45.064H102.409V48.0163H99.054L98.1415 53.2231H95.0013L98.3025 34.4893Z" fill="#00FFFF"/>
<path d="M59.389 2.21533V59.7849" stroke="#00FFFF" stroke-width="4"/>
<path d="M59.389 59.5L109.246 88.2848" stroke="#00FFFF" stroke-width="4"/>
<path d="M60 59.5L10.1433 88.2848" stroke="#00FFFF" stroke-width="4"/>
<path d="M44.936 99.288C43.528 99.288 42.304 99.056 41.264 98.592C40.224 98.128 39.384 97.496 38.744 96.696L40.832 94.392C41.44 95.064 42.104 95.56 42.824 95.88C43.56 96.2 44.304 96.36 45.056 96.36C45.92 96.36 46.576 96.168 47.024 95.784C47.472 95.4 47.696 94.848 47.696 94.128C47.696 93.536 47.52 93.088 47.168 92.784C46.832 92.48 46.256 92.264 45.44 92.136L43.688 91.848C42.184 91.592 41.096 91.04 40.424 90.192C39.752 89.328 39.416 88.28 39.416 87.048C39.416 85.432 39.944 84.184 41 83.304C42.056 82.408 43.536 81.96 45.44 81.96C46.736 81.96 47.864 82.16 48.824 82.56C49.784 82.96 50.56 83.504 51.152 84.192L49.112 86.472C48.664 85.976 48.136 85.592 47.528 85.32C46.92 85.032 46.232 84.888 45.464 84.888C43.848 84.888 43.04 85.552 43.04 86.88C43.04 87.456 43.216 87.888 43.568 88.176C43.936 88.464 44.528 88.68 45.344 88.824L47.096 89.136C48.456 89.376 49.504 89.888 50.24 90.672C50.976 91.456 51.344 92.512 51.344 93.84C51.344 94.624 51.208 95.352 50.936 96.024C50.664 96.68 50.256 97.256 49.712 97.752C49.168 98.232 48.496 98.608 47.696 98.88C46.912 99.152 45.992 99.288 44.936 99.288ZM65.0146 103.584H61.6066C60.3106 103.584 59.3906 103.272 58.8466 102.648C58.3026 102.024 58.0306 101.184 58.0306 100.128V99.144C56.3186 98.808 55.0546 97.912 54.2386 96.456C53.4386 94.984 53.0386 93.04 53.0386 90.624C53.0386 87.888 53.5666 85.76 54.6226 84.24C55.6946 82.72 57.3506 81.96 59.5906 81.96C61.8306 81.96 63.4786 82.72 64.5346 84.24C65.6066 85.76 66.1426 87.888 66.1426 90.624C66.1426 93.04 65.7346 94.984 64.9186 96.456C64.1186 97.912 62.8626 98.808 61.1506 99.144V101.016H65.0146V103.584ZM59.5906 96.384C60.6146 96.384 61.3186 96.008 61.7026 95.256C62.1026 94.488 62.3026 93.424 62.3026 92.064V89.16C62.3026 87.816 62.1026 86.768 61.7026 86.016C61.3186 85.248 60.6146 84.864 59.5906 84.864C58.5666 84.864 57.8546 85.248 57.4546 86.016C57.0706 86.768 56.8786 87.816 56.8786 89.16V92.088C56.8786 93.432 57.0706 94.488 57.4546 95.256C57.8546 96.008 58.5666 96.384 59.5906 96.384ZM68.9893 99V82.248H72.6133V96.048H79.8133V99H68.9893Z" fill="#00FFFF"/>
</svg>
