<svg width="120" height="120" viewBox="0 0 120 120" fill="none" xmlns="http://www.w3.org/2000/svg">
<rect x="118" y="2" width="116" height="116" rx="58" transform="rotate(90 118 2)" stroke="#00FFFF" stroke-width="4"/>
<path d="M33.8946 50.3579V50.3579C40.1564 50.3579 45.2327 55.4341 45.2327 61.696L45.2327 66.2312C45.2327 72.4931 40.1564 77.5693 33.8946 77.5693V77.5693" stroke="#00FFFF" stroke-width="4" stroke-linecap="round"/>
<mask id="path-3-inside-1_104_1939" fill="white">
<path fill-rule="evenodd" clip-rule="evenodd" d="M49.8223 57.4735C49.8223 54.8415 51.8559 52.6845 54.4376 52.488C54.5671 52.4782 54.6756 52.3838 54.7033 52.2569C54.9934 49.6521 55.8359 47.1308 57.1836 44.8647L58.8417 42.0765C59.3603 41.2044 59.6477 40.2144 59.6768 39.2002L59.6972 38.4876C59.7782 35.6601 62.0937 33.4099 64.9225 33.4099C67.8857 33.4099 70.2565 35.8706 70.1462 38.8318L70.0425 41.6182C70.0189 42.2522 69.9191 42.8812 69.7453 43.4914L68.7584 46.9567C68.7384 47.0268 68.7187 47.0969 68.6992 47.1671C68.5272 47.7879 69.0038 48.3884 69.648 48.3884H81.1817C83.9014 48.3884 86.1061 50.5931 86.1061 53.3128C86.1061 54.6421 85.5794 55.8483 84.7234 56.7342C84.3448 57.126 84.2286 57.7293 84.4335 58.2341C84.6653 58.8054 84.7929 59.43 84.7929 60.0845C84.7929 61.4138 84.2662 62.6201 83.4101 63.506C83.0314 63.8979 82.9152 64.5012 83.1202 65.0061C83.352 65.5775 83.4797 66.2022 83.4797 66.8568C83.4797 68.1861 82.9531 69.3923 82.097 70.2783C81.7184 70.6701 81.6023 71.2733 81.8071 71.7782C82.0389 72.3494 82.1666 72.9741 82.1666 73.6285C82.1666 76.3482 79.9618 78.5529 77.2421 78.5529H59.5143C57.481 78.5529 55.7356 77.3207 54.984 75.5623C54.9563 75.4973 54.8929 75.4541 54.8223 75.4541C52.0608 75.4541 49.8223 73.2155 49.8223 70.4541V57.4735Z"/>
</mask>
<path d="M57.1836 44.8647L53.7456 42.8201H53.7456L57.1836 44.8647ZM58.8417 42.0765L62.2797 44.121L62.2797 44.121L58.8417 42.0765ZM59.6768 39.2002L55.6784 39.0857V39.0857L59.6768 39.2002ZM59.6972 38.4876L63.6956 38.6022V38.6021L59.6972 38.4876ZM70.1462 38.8318L66.149 38.683V38.683L70.1462 38.8318ZM70.0425 41.6182L74.0397 41.767V41.767L70.0425 41.6182ZM69.7453 43.4914L73.5923 44.5871L69.7453 43.4914ZM68.7584 46.9567L64.9114 45.861L64.9114 45.861L68.7584 46.9567ZM82.097 70.2783L84.9736 73.0577L82.097 70.2783ZM83.4101 63.506L80.5336 60.7265L83.4101 63.506ZM83.1202 65.0061L79.4137 66.5103L83.1202 65.0061ZM54.984 75.5623L58.6622 73.9902L54.984 75.5623ZM68.6992 47.1671L64.8446 46.0988L68.6992 47.1671ZM84.7234 56.7342L87.5999 59.5137L84.7234 56.7342ZM84.4335 58.2341L88.14 56.7303L84.4335 58.2341ZM54.4376 52.488L54.741 56.4765L54.4376 52.488ZM54.1341 48.4996C49.483 48.8535 45.8223 52.7341 45.8223 57.4735H53.8223C53.8223 56.9489 54.2288 56.5155 54.741 56.4765L54.1341 48.4996ZM53.7456 42.8201C52.1059 45.5772 51.0809 48.6449 50.7279 51.8141L58.6787 52.6997C58.906 50.6593 59.566 48.6843 60.6216 46.9093L53.7456 42.8201ZM55.4037 40.0319L53.7456 42.8201L60.6216 46.9093L62.2797 44.121L55.4037 40.0319ZM55.6784 39.0857C55.6689 39.4194 55.5743 39.745 55.4037 40.0319L62.2797 44.121C63.1463 42.6638 63.6266 41.0095 63.6752 39.3148L55.6784 39.0857ZM55.6989 38.3731L55.6784 39.0857L63.6752 39.3148L63.6956 38.6022L55.6989 38.3731ZM64.9225 29.4099C59.9292 29.4099 55.8418 33.3819 55.6989 38.3731L63.6956 38.6021C63.7146 37.9382 64.2583 37.4099 64.9225 37.4099V29.4099ZM74.1435 38.9806C74.3381 33.7535 70.1532 29.4099 64.9225 29.4099V37.4099C65.6182 37.4099 66.1749 37.9877 66.149 38.683L74.1435 38.9806ZM74.0397 41.767L74.1435 38.9806L66.149 38.683L66.0453 41.4693L74.0397 41.767ZM73.5923 44.5871C73.854 43.6684 74.0042 42.7216 74.0397 41.767L66.0453 41.4693C66.0336 41.7829 65.9842 42.094 65.8983 42.3958L73.5923 44.5871ZM72.6054 48.0523L73.5923 44.5871L65.8983 42.3958L64.9114 45.861L72.6054 48.0523ZM72.5539 48.2355C72.5709 48.1744 72.588 48.1133 72.6054 48.0523L64.9114 45.861C64.8888 45.9402 64.8665 46.0195 64.8446 46.0988L72.5539 48.2355ZM81.1817 44.3884H69.648V52.3884H81.1817V44.3884ZM90.1061 53.3128C90.1061 48.384 86.1105 44.3884 81.1817 44.3884V52.3884C81.6922 52.3884 82.1061 52.8023 82.1061 53.3128H90.1061ZM87.5999 59.5137C89.1476 57.912 90.1061 55.7202 90.1061 53.3128H82.1061C82.1061 53.5639 82.0113 53.7846 81.8468 53.9548L87.5999 59.5137ZM88.7929 60.0845C88.7929 58.9058 88.5623 57.7711 88.14 56.7303L80.7269 59.738C80.7682 59.8397 80.7929 59.9543 80.7929 60.0845H88.7929ZM86.2865 66.2856C87.8343 64.6839 88.7929 62.492 88.7929 60.0845H80.7929C80.7929 60.3356 80.6981 60.5563 80.5336 60.7265L86.2865 66.2856ZM87.4797 66.8568C87.4797 65.6779 87.249 64.543 86.8266 63.502L79.4137 66.5103C79.455 66.612 79.4797 66.7266 79.4797 66.8568H87.4797ZM84.9736 73.0577C86.5212 71.456 87.4797 69.2642 87.4797 66.8568H79.4797C79.4797 67.1079 79.3849 67.3286 79.2205 67.4988L84.9736 73.0577ZM78.1006 73.2821C78.1418 73.3838 78.1666 73.4983 78.1666 73.6285H86.1666C86.1666 72.4498 85.9359 71.3151 85.5136 70.2743L78.1006 73.2821ZM78.1666 73.6285C78.1666 74.1391 77.7527 74.5529 77.2421 74.5529V82.5529C82.171 82.5529 86.1666 78.5574 86.1666 73.6285H78.1666ZM77.2421 74.5529H59.5143V82.5529H77.2421V74.5529ZM59.5143 74.5529C59.1388 74.5529 58.8067 74.3284 58.6622 73.9902L51.3059 77.1344C52.6645 80.313 55.8232 82.5529 59.5143 82.5529V74.5529ZM45.8223 70.4541C45.8223 75.4246 49.8517 79.4541 54.8223 79.4541V71.4541C54.27 71.4541 53.8223 71.0064 53.8223 70.4541H45.8223ZM45.8223 57.4735V70.4541H53.8223V57.4735H45.8223ZM79.2205 67.4988C77.7394 69.0316 77.3024 71.3148 78.1006 73.2821L85.5136 70.2743C85.9021 71.2318 85.6974 72.3086 84.9736 73.0577L79.2205 67.4988ZM80.5336 60.7265C79.0524 62.2593 78.6153 64.5429 79.4137 66.5103L86.8266 63.502C87.2152 64.4595 87.0105 65.5364 86.2865 66.2856L80.5336 60.7265ZM58.6622 73.9902C58.0274 72.5051 56.5508 71.4541 54.8223 71.4541V79.4541C53.2351 79.4541 51.8851 78.4895 51.3059 77.1344L58.6622 73.9902ZM64.8446 46.0988C63.9341 49.3838 66.4811 52.3884 69.648 52.3884V44.3884C71.5265 44.3884 73.1203 46.192 72.5539 48.2355L64.8446 46.0988ZM81.8468 53.9548C80.3658 55.4875 79.9288 57.7708 80.7269 59.738L88.14 56.7303C88.5285 57.6878 88.3238 58.7645 87.5999 59.5137L81.8468 53.9548ZM54.741 56.4765C56.6333 56.3325 58.2064 54.9632 58.6111 53.1106L50.7955 51.4031C51.1448 49.8044 52.501 48.6238 54.1341 48.4996L54.741 56.4765Z" fill="#00FFFF" mask="url(#path-3-inside-1_104_1939)"/>
</svg>
