<svg width="121" height="120" viewBox="0 0 121 120" fill="none" xmlns="http://www.w3.org/2000/svg">
<rect x="118.902" y="2" width="116" height="116" rx="58" transform="rotate(90 118.902 2)" stroke="#00FFFF" stroke-width="4"/>
<path d="M34.7969 50.3579V50.3579C41.0588 50.3579 46.135 55.4341 46.135 61.696L46.135 66.2312C46.135 72.4931 41.0588 77.5693 34.7969 77.5693V77.5693" stroke="#00FFFF" stroke-width="4" stroke-linecap="round"/>
<mask id="path-3-inside-1_97_12" fill="white">
<path fill-rule="evenodd" clip-rule="evenodd" d="M50.7246 57.4735C50.7246 54.8415 52.7582 52.6845 55.3399 52.488C55.4695 52.4782 55.5779 52.3838 55.6057 52.2569C55.8958 49.6521 56.7383 47.1308 58.0859 44.8647L59.7441 42.0765C60.2627 41.2044 60.5501 40.2144 60.5791 39.2002L60.5996 38.4876C60.6806 35.6601 62.9961 33.4099 65.8248 33.4099C68.7881 33.4099 71.1588 35.8706 71.0486 38.8318L70.9448 41.6182C70.9212 42.2522 70.8214 42.8812 70.6476 43.4914L69.6607 46.9567C69.6408 47.0268 69.6211 47.0969 69.6016 47.1671C69.4295 47.7879 69.9062 48.3884 70.5504 48.3884H82.084C84.8037 48.3884 87.0084 50.5931 87.0084 53.3128C87.0084 54.6421 86.4818 55.8483 85.6257 56.7342C85.2471 57.126 85.131 57.7293 85.3358 58.2341C85.5676 58.8054 85.6953 59.43 85.6953 60.0845C85.6953 61.4138 85.1685 62.6201 84.3124 63.506C83.9338 63.8979 83.8176 64.5012 84.0225 65.0061C84.2544 65.5775 84.3821 66.2022 84.3821 66.8568C84.3821 68.1861 83.8554 69.3923 82.9994 70.2783C82.6208 70.6701 82.5046 71.2733 82.7094 71.7782C82.9412 72.3494 83.0689 72.9741 83.0689 73.6285C83.0689 76.3482 80.8642 78.5529 78.1445 78.5529H60.4166C58.3834 78.5529 56.6379 77.3207 55.8864 75.5623C55.8586 75.4973 55.7953 75.4541 55.7246 75.4541C52.9632 75.4541 50.7246 73.2155 50.7246 70.4541V57.4735Z"/>
</mask>
<path d="M58.0859 44.8647L54.6479 42.8201H54.6479L58.0859 44.8647ZM59.7441 42.0765L63.182 44.121L63.182 44.121L59.7441 42.0765ZM60.5791 39.2002L56.5808 39.0857V39.0857L60.5791 39.2002ZM60.5996 38.4876L64.5979 38.6022V38.6021L60.5996 38.4876ZM71.0486 38.8318L67.0513 38.683V38.683L71.0486 38.8318ZM70.9448 41.6182L74.9421 41.767V41.767L70.9448 41.6182ZM70.6476 43.4914L74.4947 44.5871L70.6476 43.4914ZM69.6607 46.9567L65.8137 45.861L65.8137 45.861L69.6607 46.9567ZM82.9994 70.2783L85.8759 73.0577L82.9994 70.2783ZM84.3124 63.506L81.436 60.7265L84.3124 63.506ZM84.0225 65.0061L80.3161 66.5103L84.0225 65.0061ZM55.8864 75.5623L59.5645 73.9902L55.8864 75.5623ZM69.6016 47.1671L65.7469 46.0988L69.6016 47.1671ZM85.6257 56.7342L88.5023 59.5137L85.6257 56.7342ZM85.3358 58.2341L89.0423 56.7303L85.3358 58.2341ZM55.3399 52.488L55.6434 56.4765L55.3399 52.488ZM55.0364 48.4996C50.3854 48.8535 46.7246 52.7341 46.7246 57.4735H54.7246C54.7246 56.9489 55.1311 56.5155 55.6434 56.4765L55.0364 48.4996ZM54.6479 42.8201C53.0083 45.5772 51.9832 48.6449 51.6302 51.8141L59.5811 52.6997C59.8083 50.6593 60.4683 48.6843 61.5239 46.9093L54.6479 42.8201ZM56.3061 40.0319L54.6479 42.8201L61.5239 46.9093L63.182 44.121L56.3061 40.0319ZM56.5808 39.0857C56.5712 39.4194 56.4767 39.745 56.3061 40.0319L63.182 44.121C64.0486 42.6638 64.529 41.0095 64.5775 39.3148L56.5808 39.0857ZM56.6012 38.3731L56.5808 39.0857L64.5775 39.3148L64.5979 38.6022L56.6012 38.3731ZM65.8248 29.4099C60.8316 29.4099 56.7442 33.3819 56.6012 38.3731L64.5979 38.6021C64.6169 37.9382 65.1606 37.4099 65.8248 37.4099V29.4099ZM75.0458 38.9806C75.2404 33.7535 71.0556 29.4099 65.8248 29.4099V37.4099C66.5206 37.4099 67.0772 37.9877 67.0513 38.683L75.0458 38.9806ZM74.9421 41.767L75.0458 38.9806L67.0513 38.683L66.9476 41.4693L74.9421 41.767ZM74.4947 44.5871C74.7563 43.6684 74.9065 42.7216 74.9421 41.767L66.9476 41.4693C66.9359 41.7829 66.8866 42.094 66.8006 42.3958L74.4947 44.5871ZM73.5077 48.0523L74.4947 44.5871L66.8006 42.3958L65.8137 45.861L73.5077 48.0523ZM73.4563 48.2355C73.4732 48.1744 73.4904 48.1133 73.5078 48.0523L65.8137 45.861C65.7912 45.9402 65.7689 46.0195 65.7469 46.0988L73.4563 48.2355ZM82.084 44.3884H70.5504V52.3884H82.084V44.3884ZM91.0084 53.3128C91.0084 48.384 87.0128 44.3884 82.084 44.3884V52.3884C82.5946 52.3884 83.0084 52.8023 83.0084 53.3128H91.0084ZM88.5023 59.5137C90.0499 57.912 91.0084 55.7202 91.0084 53.3128H83.0084C83.0084 53.5639 82.9136 53.7846 82.7492 53.9548L88.5023 59.5137ZM89.6953 60.0845C89.6953 58.9058 89.4646 57.7711 89.0423 56.7303L81.6293 59.738C81.6705 59.8397 81.6953 59.9543 81.6953 60.0845H89.6953ZM87.1889 66.2856C88.7366 64.6839 89.6953 62.492 89.6953 60.0845H81.6953C81.6953 60.3356 81.6004 60.5563 81.436 60.7265L87.1889 66.2856ZM88.3821 66.8568C88.3821 65.6779 88.1514 64.543 87.7289 63.502L80.3161 66.5103C80.3574 66.612 80.3821 66.7266 80.3821 66.8568H88.3821ZM85.8759 73.0577C87.4236 71.456 88.3821 69.2642 88.3821 66.8568H80.3821C80.3821 67.1079 80.2873 67.3286 80.1228 67.4988L85.8759 73.0577ZM79.0029 73.2821C79.0442 73.3838 79.0689 73.4983 79.0689 73.6285H87.0689C87.0689 72.4498 86.8383 71.3151 86.416 70.2743L79.0029 73.2821ZM79.0689 73.6285C79.0689 74.1391 78.655 74.5529 78.1445 74.5529V82.5529C83.0733 82.5529 87.0689 78.5574 87.0689 73.6285H79.0689ZM78.1445 74.5529H60.4166V82.5529H78.1445V74.5529ZM60.4166 74.5529C60.0412 74.5529 59.7091 74.3284 59.5645 73.9902L52.2083 77.1344C53.5668 80.313 56.7256 82.5529 60.4166 82.5529V74.5529ZM46.7246 70.4541C46.7246 75.4246 50.754 79.4541 55.7246 79.4541V71.4541C55.1723 71.4541 54.7246 71.0064 54.7246 70.4541H46.7246ZM46.7246 57.4735V70.4541H54.7246V57.4735H46.7246ZM80.1228 67.4988C78.6418 69.0316 78.2047 71.3148 79.0029 73.2821L86.416 70.2743C86.8045 71.2318 86.5998 72.3086 85.8759 73.0577L80.1228 67.4988ZM81.436 60.7265C79.9547 62.2593 79.5177 64.5429 80.3161 66.5103L87.7289 63.502C88.1175 64.4595 87.9128 65.5364 87.1889 66.2856L81.436 60.7265ZM59.5645 73.9902C58.9297 72.5051 57.4532 71.4541 55.7246 71.4541V79.4541C54.1374 79.4541 52.7875 78.4895 52.2083 77.1344L59.5645 73.9902ZM65.7469 46.0988C64.8365 49.3838 67.3835 52.3884 70.5504 52.3884V44.3884C72.4289 44.3884 74.0226 46.192 73.4563 48.2355L65.7469 46.0988ZM82.7492 53.9548C81.2681 55.4875 80.8311 57.7708 81.6293 59.738L89.0423 56.7303C89.4308 57.6878 89.2262 58.7645 88.5023 59.5137L82.7492 53.9548ZM55.6434 56.4765C57.5356 56.3325 59.1087 54.9632 59.5135 53.1106L51.6978 51.4031C52.0471 49.8044 53.4033 48.6238 55.0364 48.4996L55.6434 56.4765Z" fill="#00FFFF" mask="url(#path-3-inside-1_97_12)"/>
</svg>
