<svg width="33" height="32" viewBox="0 0 33 32" fill="none" xmlns="http://www.w3.org/2000/svg">
<path d="M29.8 11.514L29.8 4.71488C29.8 2.63584 28.1146 0.950439 26.0356 0.950439L4.76432 0.950438C2.68527 0.950438 0.999876 2.63583 0.999876 4.71488L0.999875 20.7523C0.999875 22.8314 2.68527 24.5168 4.76432 24.5168L15.8465 24.5168" stroke="#00FFFF" stroke-linecap="round"/>
<path d="M1.00342 8.53076L29.7664 8.53076" stroke="#00FFFF"/>
<path d="M4.08813 5.07593L5.9965 5.07593" stroke="#00FFFF"/>
<path d="M25.0525 5.07593L26.9609 5.07593" stroke="#00FFFF"/>
<path d="M22.1899 5.07593L24.0983 5.07593" stroke="#00FFFF"/>
<path d="M8.27734 5.21265L17.8585 5.21265" stroke="#00FFFF"/>
<path d="M18.0608 14.8948H25.3389" stroke="#00FFFF"/>
<path d="M18.0608 17.8684L29.8858 17.8684" stroke="#00FFFF"/>
<path d="M18.0608 20.8418L28.4059 20.8418" stroke="#00FFFF"/>
<path d="M18.0608 23.8152L28.4059 23.8152" stroke="#00FFFF"/>
<path d="M18.0608 26.7886H25.8444" stroke="#00FFFF"/>
<rect x="32.5" y="11.6362" width="19.8141" height="16.5545" transform="rotate(90 32.5 11.6362)" stroke="#00FFFF"/>
</svg>
