<svg width="28" height="29" viewBox="0 0 28 29" fill="none" xmlns="http://www.w3.org/2000/svg">
<mask id="path-1-inside-1_88_5153" fill="white">
<path fill-rule="evenodd" clip-rule="evenodd" d="M16.7694 2.11001C15.7222 -0.319223 12.2778 -0.319223 11.2306 2.11001C10.5845 3.60864 8.86359 4.32148 7.34708 3.71861C4.88885 2.74138 2.45329 5.17694 3.43053 7.63516C4.0334 9.15168 3.32056 10.8726 1.82193 11.5187C-0.607309 12.5659 -0.607309 16.0103 1.82193 17.0575C3.32056 17.7035 4.0334 19.4245 3.43053 20.941C2.45329 23.3992 4.88885 25.8348 7.34708 24.8576C8.86359 24.2547 10.5845 24.9675 11.2306 26.4662C12.2778 28.8954 15.7222 28.8954 16.7694 26.4662C17.4155 24.9675 19.1364 24.2547 20.6529 24.8576C23.1111 25.8348 25.5467 23.3992 24.5695 20.941C23.9666 19.4245 24.6794 17.7035 26.1781 17.0575C28.6073 16.0103 28.6073 12.5659 26.1781 11.5187C24.6794 10.8726 23.9666 9.15168 24.5695 7.63516C25.5467 5.17694 23.1111 2.74138 20.6529 3.71861C19.1364 4.32148 17.4155 3.60864 16.7694 2.11001ZM13.9998 19.9709C17.1383 19.9709 19.6826 17.4266 19.6826 14.2881C19.6826 11.1496 17.1383 8.60528 13.9998 8.60528C10.8612 8.60528 8.31695 11.1496 8.31695 14.2881C8.31695 17.4266 10.8612 19.9709 13.9998 19.9709Z"/>
</mask>
<path d="M11.2306 2.11001L12.1489 2.50588V2.50588L11.2306 2.11001ZM16.7694 2.11001L17.6877 1.71414V1.71414L16.7694 2.11001ZM7.34708 3.71861L7.71649 2.78935L7.34708 3.71861ZM3.43053 7.63516L4.35979 7.26575L3.43053 7.63516ZM1.82193 11.5187L2.2178 12.437H2.2178L1.82193 11.5187ZM1.82193 17.0575L1.42606 17.9758H1.42606L1.82193 17.0575ZM3.43053 20.941L4.35979 21.3104L3.43053 20.941ZM7.34708 24.8576L7.71649 25.7868L7.34708 24.8576ZM11.2306 26.4662L12.1489 26.0703L11.2306 26.4662ZM16.7694 26.4662L17.6877 26.862L16.7694 26.4662ZM20.6529 24.8576L21.0223 23.9283L20.6529 24.8576ZM24.5695 20.941L25.4987 20.5716L24.5695 20.941ZM26.1781 17.0575L25.7822 16.1392V16.1392L26.1781 17.0575ZM26.1781 11.5187L25.7822 12.437L26.1781 11.5187ZM24.5695 7.63516L25.4987 8.00458L24.5695 7.63516ZM20.6529 3.71861L21.0223 4.64788L20.6529 3.71861ZM12.1489 2.50588C12.8489 0.882154 15.1511 0.882153 15.8511 2.50588L17.6877 1.71414C16.2933 -1.5206 11.7067 -1.5206 10.3123 1.71414L12.1489 2.50588ZM6.97766 4.64788C8.99703 5.45065 11.2886 4.50144 12.1489 2.50588L10.3123 1.71414C9.88045 2.71584 8.73015 3.19232 7.71649 2.78935L6.97766 4.64788ZM4.35979 7.26575C3.70659 5.62264 5.33455 3.99468 6.97766 4.64788L7.71649 2.78935C4.44316 1.48807 1.19999 4.73124 2.50126 8.00458L4.35979 7.26575ZM2.2178 12.437C4.21336 11.5767 5.16257 9.28512 4.35979 7.26575L2.50126 8.00458C2.90423 9.01824 2.42776 10.1685 1.42606 10.6004L2.2178 12.437ZM2.2178 16.1392C0.594067 15.4392 0.594068 13.1369 2.2178 12.437L1.42606 10.6004C-1.80869 11.9948 -1.80868 16.5814 1.42606 17.9758L2.2178 16.1392ZM4.35979 21.3104C5.16257 19.2911 4.21336 16.9995 2.2178 16.1392L1.42606 17.9758C2.42776 18.4076 2.90423 19.5579 2.50126 20.5716L4.35979 21.3104ZM6.97766 23.9283C5.33455 24.5815 3.70659 22.9535 4.35979 21.3104L2.50126 20.5716C1.19999 23.8449 4.44316 27.0881 7.71649 25.7868L6.97766 23.9283ZM12.1489 26.0703C11.2886 24.0747 8.99703 23.1255 6.97766 23.9283L7.71649 25.7868C8.73015 25.3839 9.88045 25.8603 10.3123 26.862L12.1489 26.0703ZM15.8511 26.0703C15.1511 27.694 12.8489 27.694 12.1489 26.0703L10.3123 26.862C11.7067 30.0968 16.2933 30.0968 17.6877 26.862L15.8511 26.0703ZM21.0223 23.9283C19.003 23.1255 16.7114 24.0747 15.8511 26.0703L17.6877 26.862C18.1195 25.8603 19.2699 25.3839 20.2835 25.7868L21.0223 23.9283ZM23.6402 21.3104C24.2934 22.9535 22.6654 24.5815 21.0223 23.9283L20.2835 25.7868C23.5568 27.0881 26.8 23.8449 25.4987 20.5716L23.6402 21.3104ZM25.7822 16.1392C23.7866 16.9995 22.8374 19.2911 23.6402 21.3104L25.4987 20.5716C25.0958 19.5579 25.5722 18.4076 26.5739 17.9758L25.7822 16.1392ZM25.7822 12.437C27.4059 13.1369 27.4059 15.4392 25.7822 16.1392L26.5739 17.9758C29.8087 16.5814 29.8087 11.9948 26.5739 10.6004L25.7822 12.437ZM23.6402 7.26575C22.8374 9.28512 23.7866 11.5767 25.7822 12.437L26.5739 10.6004C25.5722 10.1685 25.0958 9.01824 25.4987 8.00458L23.6402 7.26575ZM21.0223 4.64788C22.6654 3.99468 24.2934 5.62264 23.6402 7.26575L25.4987 8.00458C26.8 4.73124 23.5568 1.48807 20.2835 2.78935L21.0223 4.64788ZM15.8511 2.50588C16.7114 4.50144 19.003 5.45065 21.0223 4.64788L20.2835 2.78935C19.2699 3.19232 18.1195 2.71584 17.6877 1.71414L15.8511 2.50588ZM18.6826 14.2881C18.6826 16.8743 16.586 18.9709 13.9998 18.9709V20.9709C17.6906 20.9709 20.6826 17.9789 20.6826 14.2881H18.6826ZM13.9998 9.60528C16.586 9.60528 18.6826 11.7018 18.6826 14.2881H20.6826C20.6826 10.5973 17.6906 7.60528 13.9998 7.60528V9.60528ZM9.31695 14.2881C9.31695 11.7018 11.4135 9.60528 13.9998 9.60528V7.60528C10.309 7.60528 7.31695 10.5973 7.31695 14.2881H9.31695ZM13.9998 18.9709C11.4135 18.9709 9.31695 16.8743 9.31695 14.2881H7.31695C7.31695 17.9789 10.309 20.9709 13.9998 20.9709V18.9709Z" fill="#00FFFF" mask="url(#path-1-inside-1_88_5153)"/>
</svg>
