<svg width="30" height="32" viewBox="0 0 30 32" fill="none" xmlns="http://www.w3.org/2000/svg">
<circle cx="14.4623" cy="16.2038" r="10.7189" stroke="#00FFFF"/>
<path d="M19.3563 16.2038C19.3563 19.2436 18.7628 21.9711 17.8258 23.9201C16.8716 25.9047 15.6501 26.9226 14.4624 26.9226C13.2747 26.9226 12.0532 25.9047 11.099 23.9201C10.162 21.9711 9.5686 19.2436 9.5686 16.2038C9.5686 13.1639 10.162 10.4364 11.099 8.48745C12.0532 6.50278 13.2747 5.48486 14.4624 5.48486C15.6501 5.48486 16.8716 6.50278 17.8258 8.48745C18.7628 10.4364 19.3563 13.1639 19.3563 16.2038Z" stroke="#00FFFF"/>
<path d="M19.395 5.2282C19.3185 5.49354 19.4716 5.77064 19.737 5.84713L24.0609 7.09348C24.3263 7.16996 24.6034 7.01686 24.6798 6.75153C24.7563 6.48619 24.6032 6.20908 24.3379 6.1326L20.4944 5.02473L21.6022 1.18121C21.6787 0.915874 21.5256 0.638773 21.2603 0.56229C20.9949 0.485807 20.7178 0.638906 20.6414 0.904246L19.395 5.2282ZM17.9221 19.6642C14.7112 22.8751 11.3949 25.3437 8.64131 26.7455C7.26195 27.4477 6.04976 27.8688 5.07847 27.9956C4.09832 28.1235 3.45886 27.9427 3.09078 27.5746L2.38367 28.2817C3.0688 28.9669 4.08885 29.1332 5.20788 28.9872C6.33577 28.84 7.66244 28.366 9.09499 27.6367C11.9652 26.1755 15.3649 23.6356 18.6292 20.3713L17.9221 19.6642ZM25.8325 4.83286C26.2006 5.20094 26.3814 5.8404 26.2535 6.82055C26.1268 7.79184 25.7056 9.00403 25.0034 10.3834C23.6016 13.1369 21.133 16.4533 17.9221 19.6642L18.6292 20.3713C21.8936 17.107 24.4334 13.7073 25.8946 10.8371C26.6239 9.40452 27.0979 8.07785 27.2451 6.94996C27.3912 5.83093 27.2248 4.81088 26.5396 4.12575L25.8325 4.83286ZM20.1172 5.80433C21.6581 4.95303 22.8891 4.48053 23.8459 4.34485C24.7877 4.21128 25.4081 4.40842 25.8325 4.83286L26.5396 4.12575C25.8276 3.41372 24.8541 3.19185 23.7055 3.35475C22.5717 3.51553 21.2157 4.05496 19.6336 4.92904L20.1172 5.80433ZM3.09078 27.5746C2.71545 27.1993 2.53499 26.5414 2.6775 25.5301C2.81857 24.5292 3.26573 23.2802 4.00315 21.8623L3.11595 21.4009C2.3512 22.8714 1.8503 24.2339 1.68729 25.3906C1.52573 26.5371 1.68519 27.5832 2.38367 28.2817L3.09078 27.5746Z" fill="#00FFFF"/>
<path d="M24.7517 12.4839H4.28149" stroke="#00FFFF"/>
<path d="M24.4619 19.7947H3.9917" stroke="#00FFFF"/>
</svg>
