<svg width="28" height="26" viewBox="0 0 28 26" fill="none" xmlns="http://www.w3.org/2000/svg">
<path d="M12.705 13.895H24.8993C24.7964 16.3225 23.9459 18.6672 22.4536 20.615C20.859 22.6965 18.6177 24.2119 16.0679 24.9305C13.518 25.6491 10.7995 25.5314 8.32382 24.5952C5.84828 23.6591 3.75142 21.9561 2.34903 19.7453C0.946735 17.5346 0.3146 14.9358 0.547136 12.3416C0.779674 9.74728 1.86444 7.29684 3.63901 5.36102C5.4137 3.42507 7.78195 2.10905 10.3863 1.61357C12.8241 1.14977 15.3434 1.4288 17.6093 2.40648L12.2572 13.1724L11.898 13.895H12.705ZM25.9554 5.41983C26.8752 6.8698 27.4009 8.52399 27.4873 10.2244H18.1094L22.2254 1.945C23.7483 2.77027 25.0331 3.96586 25.9554 5.41983Z" stroke="#00FFFF"/>
</svg>
