<svg width="33" height="36" viewBox="0 0 33 36" fill="none" xmlns="http://www.w3.org/2000/svg">
<rect x="32.5" y="10.3589" width="24.1776" height="16.4863" transform="rotate(90 32.5 10.3589)" stroke="#00FFFF"/>
<rect x="30.7158" y="13.188" width="3.52567" height="12.9207" transform="rotate(90 30.7158 13.188)" stroke="#00FFFF"/>
<rect x="30.7158" y="18.9221" width="3.16612" height="3.08013" transform="rotate(90 30.7158 18.9221)" stroke="#00FFFF"/>
<rect x="30.7158" y="24.2788" width="3.16612" height="3.08013" transform="rotate(90 30.7158 24.2788)" stroke="#00FFFF"/>
<rect x="30.7158" y="29.6353" width="3.16612" height="3.08013" transform="rotate(90 30.7158 29.6353)" stroke="#00FFFF"/>
<rect x="25.7952" y="18.9221" width="3.16612" height="3.08013" transform="rotate(90 25.7952 18.9221)" stroke="#00FFFF"/>
<rect x="25.7952" y="24.2788" width="3.16612" height="3.08013" transform="rotate(90 25.7952 24.2788)" stroke="#00FFFF"/>
<rect x="25.7952" y="29.6353" width="3.16612" height="3.08013" transform="rotate(90 25.7952 29.6353)" stroke="#00FFFF"/>
<rect x="20.8765" y="18.9221" width="3.16612" height="3.08013" transform="rotate(90 20.8765 18.9221)" stroke="#00FFFF"/>
<rect x="20.8765" y="24.2788" width="3.16612" height="3.08013" transform="rotate(90 20.8765 24.2788)" stroke="#00FFFF"/>
<rect x="20.8765" y="29.6353" width="3.16612" height="3.08013" transform="rotate(90 20.8765 29.6353)" stroke="#00FFFF"/>
<path d="M24.5325 10.2658V1.03662H1V32.0657H15.6496" stroke="#00FFFF"/>
<path d="M24.5325 10.2658V1.03662H1V32.0657H15.6496" stroke="#00FFFF"/>
<path d="M24.5325 10.2658V1.03662H1V32.0657H15.6496" stroke="#00FFFF"/>
<path d="M4.72314 5.71436H20.3855" stroke="#00FFFF" stroke-width="2"/>
<path d="M4.72314 5.71436H20.3855" stroke="#00FFFF" stroke-width="2"/>
<path d="M4.72314 5.71436H20.3855" stroke="#00FFFF" stroke-width="2"/>
<path d="M4.72314 10.8599H13.225" stroke="#00FFFF" stroke-width="2"/>
<path d="M4.72314 10.8599H13.225" stroke="#00FFFF" stroke-width="2"/>
<path d="M4.72314 10.8599H13.225" stroke="#00FFFF" stroke-width="2"/>
<path d="M4.72314 15.6826H13.225" stroke="#00FFFF" stroke-width="2"/>
<path d="M4.72314 15.6826H13.225" stroke="#00FFFF" stroke-width="2"/>
<path d="M4.72314 15.6826H13.225" stroke="#00FFFF" stroke-width="2"/>
<path d="M4.72314 20.5054H13.225" stroke="#00FFFF" stroke-width="2"/>
<path d="M4.72314 20.5054H13.225" stroke="#00FFFF" stroke-width="2"/>
<path d="M4.72314 20.5054H13.225" stroke="#00FFFF" stroke-width="2"/>
<path d="M4.72314 25.3281H13.225" stroke="#00FFFF" stroke-width="2"/>
<path d="M4.72314 25.3281H13.225" stroke="#00FFFF" stroke-width="2"/>
<path d="M4.72314 25.3281H13.225" stroke="#00FFFF" stroke-width="2"/>
</svg>
