<svg width="32" height="30" viewBox="0 0 32 30" fill="none" xmlns="http://www.w3.org/2000/svg">
<path d="M29.6611 18.1031L29.6611 4.71488C29.6611 2.63584 27.9757 0.950439 25.8967 0.950439L4.76427 0.950438C2.68523 0.950438 0.999828 2.63584 0.999828 4.71488L0.999828 20.9626C0.999828 23.0416 2.68522 24.727 4.76427 24.727L6.74023 24.727" stroke="#00FFFF" stroke-linecap="round"/>
<path d="M1.00342 8.59839L29.6277 8.59839" stroke="#00FFFF"/>
<path d="M4.07324 5.11279L5.97241 5.11279" stroke="#00FFFF"/>
<path d="M5.97168 11.4272L5.97168 21.6286" stroke="#00FFFF" stroke-width="3"/>
<path d="M10.9512 11.4272L10.9512 18.4272" stroke="#00FFFF" stroke-width="3"/>
<path d="M15.9307 11.4272L15.9307 17.4272" stroke="#00FFFF" stroke-width="3"/>
<path d="M9.48193 27.1624L15.4287 21.3835L23.2142 28.9504L30.9997 21.3835M30.9997 21.3835L26.0926 21.3835M30.9997 21.3835L30.9997 25.6765" stroke="#00FFFF" stroke-width="1.2575"/>
<path d="M24.9365 5.11279L26.8357 5.11279" stroke="#00FFFF"/>
<path d="M22.0879 5.11279L23.9871 5.11279" stroke="#00FFFF"/>
</svg>
