<svg width="186" height="76" viewBox="0 0 186 76" fill="none" xmlns="http://www.w3.org/2000/svg">
<path d="M139.484 11.6423L179.516 11.6423C182.19 11.6423 184.358 13.81 184.358 16.484L184.358 48.516C184.358 51.19 182.19 53.3577 179.516 53.3577L139.484 53.3577C136.81 53.3577 134.642 51.19 134.642 48.516L134.642 16.484C134.642 13.81 136.81 11.6423 139.484 11.6423Z" stroke="#00FFFF" stroke-width="3.28463" stroke-linecap="round"/>
<path d="M133.006 24.4749L185.938 24.4749" stroke="#00FFFF" stroke-width="3.28463"/>
<path d="M138.682 17.8779L142.194 17.8779" stroke="#00FFFF" stroke-width="3.28463"/>
<path d="M144.828 17.8779L162.387 17.8779" stroke="#00FFFF" stroke-width="3.28463"/>
<path d="M177.263 17.8779L180.775 17.8779" stroke="#00FFFF" stroke-width="3.28463"/>
<path d="M171.996 17.8779L175.508 17.8779" stroke="#00FFFF" stroke-width="3.28463"/>
<path d="M151.924 44.5253V41.8056L146.071 38.7115V38.5538L151.924 35.4597V32.7401L143.45 37.2728V39.9925L151.924 44.5253ZM157.651 47.3632L163.978 29.6656H161.356L155.03 47.3632H157.651ZM167.084 44.5253L175.558 39.9925V37.2728L167.084 32.7401V35.4597L172.937 38.5538V38.7115L167.084 41.8056V44.5253Z" fill="#00FFFF"/>
<path d="M84.5114 45.6913C87.3493 45.6913 88.8274 44.1344 89.3792 41.7301L86.6201 41.06C86.3245 42.3607 85.8318 43.3067 84.4523 43.3067C82.8559 43.3067 82.245 41.9666 82.245 39.779V37.3746C82.245 35.1871 82.8559 33.8469 84.4523 33.8469C85.8318 33.8469 86.3245 34.7929 86.6201 36.0936L89.3792 35.4236C88.8274 33.0192 87.3493 31.4623 84.5114 31.4623C80.826 31.4623 79.0917 34.0637 79.0917 38.5768C79.0917 43.0899 80.826 45.6913 84.5114 45.6913ZM91.7364 45.4548H94.0422L96.4663 31.6988H94.1605L93.4904 35.5221H91.027V37.69H93.0963L92.8007 39.4637H90.2781V41.6315H92.4065L91.7364 45.4548ZM95.5597 45.4548H97.8656L98.5356 41.6315H100.999V39.4637H98.9298L99.2254 37.69H101.748V35.5221H99.6195L100.29 31.6988H97.9838L95.5597 45.4548Z" fill="#00FFFF"/>
<path d="M70.484 12L110.516 12C112.992 12 115 14.0075 115 16.484L115 48.516C115 50.9925 112.992 53 110.516 53L70.484 53C68.0075 53 66 50.9925 66 48.516L66 16.484C66 14.0075 68.0075 12 70.484 12Z" stroke="#00FFFF" stroke-width="4" stroke-linecap="round"/>
<path d="M64.0054 24.4751L116.937 24.4751" stroke="#00FFFF" stroke-width="4"/>
<path d="M69.6816 17.8782L73.1935 17.8782" stroke="#00FFFF" stroke-width="4"/>
<path d="M75.8276 17.8782L93.3872 17.8782" stroke="#00FFFF" stroke-width="4"/>
<path d="M108.263 17.8782L111.775 17.8782" stroke="#00FFFF" stroke-width="4"/>
<path d="M102.995 17.8782L106.507 17.8782" stroke="#00FFFF" stroke-width="4"/>
<path d="M6.4069 44.1631V39.6083C6.50825 39.6991 6.61365 39.7877 6.72264 39.8742C7.7535 40.692 9.20149 41.3975 10.9278 41.9768C14.3876 43.1378 19.1222 43.8436 24.3193 43.8436C29.5164 43.8436 34.251 43.1378 37.7108 41.9768C39.4371 41.3975 40.8851 40.692 41.9159 39.8742C42.0249 39.7877 42.1303 39.6991 42.2317 39.6083V44.1631C42.2317 44.718 41.8973 45.3577 41.0363 46.0408C40.1827 46.718 38.9038 47.3589 37.2605 47.9103C33.9813 49.0107 29.4058 49.7036 24.3193 49.7036C19.2328 49.7036 14.6573 49.0107 11.378 47.9103C9.73476 47.3589 8.45591 46.718 7.60231 46.0408C6.74127 45.3577 6.4069 44.718 6.4069 44.1631Z" fill="#00FFFF" stroke="#00FFFF" stroke-width="1.41537"/>
<path d="M6.4069 31.6916V27.1369C6.50825 27.2276 6.61365 27.3163 6.72264 27.4027C7.7535 28.2206 9.20149 28.9261 10.9278 29.5053C14.3876 30.6663 19.1222 31.3722 24.3193 31.3722C29.5164 31.3722 34.251 30.6663 37.7108 29.5053C39.4371 28.9261 40.8851 28.2206 41.9159 27.4027C42.0249 27.3163 42.1303 27.2276 42.2317 27.1369V31.6916C42.2317 32.2466 41.8973 32.8862 41.0363 33.5693C40.1827 34.2465 38.9038 34.8875 37.2605 35.4389C33.9813 36.5393 29.4058 37.2322 24.3193 37.2322C19.2328 37.2322 14.6573 36.5393 11.378 35.4389C9.73476 34.8875 8.45591 34.2465 7.60231 33.5693C6.74127 32.8862 6.4069 32.2466 6.4069 31.6916Z" fill="#00FFFF" stroke="#00FFFF" stroke-width="1.41537"/>
<path d="M6.4069 19.22V14.6652C6.50825 14.756 6.61365 14.8446 6.72264 14.9311C7.7535 15.7489 9.20149 16.4544 10.9278 17.0337C14.3876 18.1947 19.1222 18.9005 24.3193 18.9005C29.5164 18.9005 34.251 18.1947 37.7108 17.0337C39.4371 16.4544 40.8851 15.7489 41.9159 14.9311C42.0249 14.8446 42.1303 14.756 42.2317 14.6652V19.22C42.2317 19.7749 41.8973 20.4145 41.0363 21.0977C40.1827 21.7749 38.9038 22.4158 37.2605 22.9672C33.9813 24.0676 29.4058 24.7605 24.3193 24.7605C19.2328 24.7605 14.6573 24.0676 11.378 22.9672C9.73476 22.4158 8.45591 21.7749 7.60231 21.0977C6.74127 20.4145 6.4069 19.7749 6.4069 19.22Z" fill="#00FFFF" stroke="#00FFFF" stroke-width="1.41537"/>
<ellipse cx="24.3193" cy="6.74822" rx="18.6201" ry="6.24822" fill="#00FFFF"/>
<path d="M9.63686 71.6837C13.6113 71.6837 15.7007 69.5034 15.7007 66.5283C15.7007 64.03 14.2245 62.5311 11.6809 62.0769L10.0229 61.7817C8.4786 61.5091 7.84269 61.0322 7.84269 59.9421C7.84269 58.693 8.61486 58.057 10.1365 58.057C11.5673 58.057 12.7483 58.6248 13.5886 59.556L15.519 57.3984C14.4062 56.1039 12.5439 55.2863 10.1138 55.2863C6.52545 55.2863 4.41332 57.0578 4.41332 60.101C4.41332 62.4176 5.61701 64.1663 8.45589 64.6432L10.1138 64.9158C11.6581 65.1656 12.2486 65.688 12.2486 66.8008C12.2486 68.1635 11.3629 68.9129 9.75042 68.9129C8.34233 68.9129 6.91154 68.3224 5.75327 67.0506L3.77741 69.2309C4.9811 70.7298 7.00238 71.6837 9.63686 71.6837ZM28.6371 73.3189H24.9807V71.5474C28.2056 70.9115 29.7046 68.0272 29.7046 63.485C29.7046 58.3069 27.7514 55.2863 23.5044 55.2863C19.2575 55.2863 17.3043 58.3069 17.3043 63.485C17.3043 68.0272 18.8033 70.9115 22.0282 71.5474V72.4786C22.0282 74.4544 22.9594 75.7489 25.4122 75.7489H28.6371V73.3189ZM23.5044 68.9356C21.574 68.9356 20.9381 67.414 20.9381 64.8704V62.0996C20.9381 59.556 21.574 58.0343 23.5044 58.0343C25.4349 58.0343 26.0708 59.556 26.0708 62.0996V64.8476C26.0708 67.414 25.4349 68.9356 23.5044 68.9356ZM42.641 71.4111V68.6177H35.8277V55.5588H32.3983V71.4111H42.641Z" fill="#00FFFF"/>
</svg>
