<svg width="4762" height="566" viewBox="0 0 4762 566" fill="none" xmlns="http://www.w3.org/2000/svg">
<circle cx="139.331" cy="136.064" r="21.8791" fill="white"/>
<circle r="21.8791" transform="matrix(1 8.74228e-08 8.74228e-08 -1 139.331 438.521)" fill="#458DB9"/>
<circle cx="33.2176" cy="286.804" r="32.8186" fill="white"/>
<circle r="32.8186" transform="matrix(-1 0 0 1 245.444 286.804)" fill="#458DB9"/>
<circle cx="52.4175" cy="218.232" r="26.2549" fill="white"/>
<circle r="26.2549" transform="matrix(-1 0 0 1 226.245 218.232)" fill="#458DB9"/>
<circle cx="52.4175" cy="355.379" r="26.2549" fill="white"/>
<circle r="26.2549" transform="matrix(-1 0 0 1 226.245 355.379)" fill="#458DB9"/>
<circle cx="92.291" cy="168.884" r="24.067" fill="white"/>
<circle r="24.067" transform="matrix(-1 0 0 1 186.37 168.884)" fill="#458DB9"/>
<circle cx="94.4787" cy="96.6828" r="17.5033" fill="#458DB9"/>
<circle r="17.5033" transform="matrix(-1 0 0 1 184.184 96.6828)" fill="white"/>
<circle cx="57.2845" cy="59.4889" r="15.3154" fill="#458DB9"/>
<circle r="15.3154" transform="matrix(-1 0 0 1 221.378 59.4889)" fill="white"/>
<circle r="24.067" transform="matrix(1 8.74228e-08 8.74228e-08 -1 92.291 405.701)" fill="white"/>
<circle cx="186.37" cy="405.701" r="24.067" transform="rotate(180 186.37 405.701)" fill="#458DB9"/>
<circle r="17.5033" transform="matrix(1 8.74228e-08 8.74228e-08 -1 94.4787 477.903)" fill="#458DB9"/>
<circle cx="184.184" cy="477.903" r="17.5033" transform="rotate(180 184.184 477.903)" fill="white"/>
<circle r="15.3154" transform="matrix(1 8.74228e-08 8.74228e-08 -1 57.2845 515.097)" fill="#458DB9"/>
<circle cx="221.378" cy="515.097" r="15.3154" transform="rotate(180 221.378 515.097)" fill="white"/>
<circle r="13.1275" transform="matrix(1 8.74228e-08 8.74228e-08 -1 37.5937 552.292)" fill="#458DB9"/>
<circle cx="241.069" cy="552.292" r="13.1275" transform="rotate(180 241.069 552.292)" fill="white"/>
<circle cx="33.218" cy="13.5428" r="13.1275" fill="#458DB9"/>
<circle r="13.1275" transform="matrix(-1 0 0 1 245.445 13.5428)" fill="white"/>
<path d="M32.5754 14.142H133.528" stroke="#458DB9" stroke-width="9.1889"/>
<path d="M45.1859 59.4869L133.529 59.4869" stroke="#458DB9" stroke-width="9.1889"/>
<path d="M79.6254 97.5593L133.528 97.5593" stroke="#458DB9" stroke-width="9.1889"/>
<path d="M32.5754 552.643H133.528" stroke="#458DB9" stroke-width="9.1889"/>
<path d="M45.1859 516.048L133.529 516.048" stroke="#458DB9" stroke-width="9.1889"/>
<path d="M79.6254 477.98L133.528 477.98" stroke="#458DB9" stroke-width="9.1889"/>
<path d="M32.5754 287.417H133.528" stroke="white" stroke-width="9.1889"/>
<path d="M45.1859 354.644L133.529 354.644" stroke="white" stroke-width="9.1889"/>
<path d="M45.1859 219.207L133.529 219.207" stroke="white" stroke-width="9.1889"/>
<path d="M79.6254 405.839L133.528 405.839" stroke="white" stroke-width="9.1889"/>
<path d="M79.6254 169.545L133.528 169.545" stroke="white" stroke-width="9.1889"/>
<path d="M247.299 14.142H146.347" stroke="white" stroke-width="9.1889"/>
<path d="M234.69 59.4869L146.347 59.4869" stroke="white" stroke-width="9.1889"/>
<path d="M200.25 97.5593L146.347 97.5593" stroke="white" stroke-width="9.1889"/>
<path d="M247.299 552.643H146.347" stroke="white" stroke-width="9.1889"/>
<path d="M234.69 516.048L146.347 516.048" stroke="white" stroke-width="9.1889"/>
<path d="M200.25 477.98L146.347 477.98" stroke="white" stroke-width="9.1889"/>
<path d="M247.299 287.417H146.347" stroke="#458DB9" stroke-width="9.1889"/>
<path d="M234.69 354.644L146.347 354.644" stroke="#458DB9" stroke-width="9.1889"/>
<path d="M234.69 219.207L146.347 219.207" stroke="#458DB9" stroke-width="9.1889"/>
<path d="M200.25 405.839L146.347 405.839" stroke="#458DB9" stroke-width="9.1889"/>
<path d="M200.25 169.545L146.347 169.545" stroke="#458DB9" stroke-width="9.1889"/>
<path d="M673.461 423.19C653.349 423.19 634.746 419.922 617.651 413.386C600.807 406.598 586.1 397.171 573.531 385.104C561.212 372.785 551.533 358.456 544.494 342.115C537.455 325.774 533.936 307.799 533.936 288.19C533.936 268.581 537.455 250.607 544.494 234.266C551.533 217.925 561.338 203.721 573.908 191.654C586.478 179.336 601.184 169.908 618.028 163.372C635.123 156.584 653.726 153.191 673.838 153.191C694.201 153.191 712.93 156.71 730.025 163.749C747.371 170.537 762.078 180.718 774.145 194.294L749.634 218.051C739.578 207.492 728.265 199.699 715.695 194.671C703.125 189.392 689.676 186.752 675.346 186.752C660.514 186.752 646.687 189.266 633.866 194.294C621.296 199.322 610.36 206.361 601.058 215.411C591.757 224.461 584.466 235.271 579.187 247.841C574.159 260.16 571.645 273.609 571.645 288.19C571.645 302.771 574.159 316.347 579.187 328.917C584.466 341.235 591.757 351.919 601.058 360.97C610.36 370.02 621.296 377.059 633.866 382.087C646.687 387.115 660.514 389.629 675.346 389.629C689.676 389.629 703.125 387.115 715.695 382.087C728.265 376.808 739.578 368.763 749.634 357.953L774.145 381.71C762.078 395.285 747.371 405.593 730.025 412.632C712.93 419.671 694.075 423.19 673.461 423.19ZM826.099 420.174V156.207H863.431V359.838L1019.55 156.207H1054.24V420.174H1017.29V216.92L860.791 420.174H826.099ZM1254.57 423.19C1234.46 423.19 1215.85 419.922 1198.76 413.386C1181.92 406.598 1167.21 397.171 1154.64 385.104C1142.32 372.785 1132.64 358.456 1125.6 342.115C1118.56 325.774 1115.04 307.799 1115.04 288.19C1115.04 268.581 1118.56 250.607 1125.6 234.266C1132.64 217.925 1142.45 203.721 1155.02 191.654C1167.59 179.336 1182.29 169.908 1199.14 163.372C1216.23 156.584 1234.83 153.191 1254.95 153.191C1275.31 153.191 1294.04 156.71 1311.13 163.749C1328.48 170.537 1343.19 180.718 1355.25 194.294L1330.74 218.051C1320.69 207.492 1309.37 199.699 1296.8 194.671C1284.23 189.392 1270.78 186.752 1256.45 186.752C1241.62 186.752 1227.8 189.266 1214.97 194.294C1202.4 199.322 1191.47 206.361 1182.17 215.411C1172.87 224.461 1165.58 235.271 1160.3 247.841C1155.27 260.16 1152.75 273.609 1152.75 288.19C1152.75 302.771 1155.27 316.347 1160.3 328.917C1165.58 341.235 1172.87 351.919 1182.17 360.97C1191.47 370.02 1202.4 377.059 1214.97 382.087C1227.8 387.115 1241.62 389.629 1256.45 389.629C1270.78 389.629 1284.23 387.115 1296.8 382.087C1309.37 376.808 1320.69 368.763 1330.74 357.953L1355.25 381.71C1343.19 395.285 1328.48 405.593 1311.13 412.632C1294.04 419.671 1275.18 423.19 1254.57 423.19ZM1458.19 420.174V179.21L1467.61 189.015H1368.06V156.207H1585.64V189.015H1486.09L1495.14 179.21V420.174H1458.19ZM1665.79 270.09H1801.55V302.143H1665.79V270.09ZM1669.19 387.366H1823.04V420.174H1631.48V156.207H1817.76V189.015H1669.19V387.366ZM1882.26 420.174V156.207H1913.18L2031.59 355.69H2015L2131.89 156.207H2162.82L2163.19 420.174H2126.99L2126.62 213.149H2135.29L2031.21 388.121H2013.86L1909.03 213.149H1918.46V420.174H1882.26ZM2434.66 156.207H2472.37V420.174H2434.66V156.207ZM2283.07 420.174H2245.36V156.207H2283.07V420.174ZM2438.05 302.52H2279.3V269.713H2438.05V302.52ZM2670.46 248.218C2701.64 248.218 2725.64 255.257 2742.49 269.336C2759.33 283.162 2767.75 303.903 2767.75 331.556C2767.75 360.718 2758.58 382.841 2740.23 397.925C2722.12 412.757 2696.61 420.174 2663.68 420.174H2554.69V156.207H2592.03V248.218H2670.46ZM2662.17 390.383C2684.04 390.383 2700.76 385.481 2712.32 375.676C2724.14 365.872 2730.04 351.417 2730.04 332.31C2730.04 313.707 2724.26 300.006 2712.7 291.207C2701.13 282.408 2684.29 278.009 2662.17 278.009H2592.03V390.383H2662.17ZM2809.61 420.174V156.207H2846.94V420.174H2809.61ZM2929.21 420.174V156.207H2966.54V359.838L3122.66 156.207H3157.35V420.174H3120.4V216.92L2963.9 420.174H2929.21ZM3042.72 137.73C3022.1 137.73 3006.14 133.205 2994.83 124.154C2983.76 115.104 2978.11 102.408 2977.86 86.0677H3004.63C3004.88 95.8721 3008.4 103.54 3015.19 109.07C3021.98 114.35 3031.15 116.989 3042.72 116.989C3054.03 116.989 3063.08 114.35 3069.87 109.07C3076.91 103.54 3080.55 95.8721 3080.8 86.0677H3107.2C3106.95 102.408 3101.17 115.104 3089.85 124.154C3078.79 133.205 3063.08 137.73 3042.72 137.73ZM3340.92 420.174V156.207H3514.01L3513.63 189.015H3368.83L3377.88 179.587L3378.25 420.174H3340.92ZM3593.25 270.09H3729V302.143H3593.25V270.09ZM3596.64 387.366H3750.49V420.174H3558.93V156.207H3745.22V189.015H3596.64V387.366ZM3999.01 156.207H4036.72V420.174H3999.01V156.207ZM3847.42 420.174H3809.71V156.207H3847.42V420.174ZM4002.41 302.52H3843.65V269.713H4002.41V302.52ZM4237.83 423.19C4217.72 423.19 4198.99 419.796 4181.65 413.009C4164.55 406.221 4149.72 396.794 4137.15 384.727C4124.58 372.408 4114.77 358.079 4107.74 341.738C4100.7 325.397 4097.18 307.548 4097.18 288.19C4097.18 268.833 4100.7 250.984 4107.74 234.643C4114.77 218.302 4124.58 204.098 4137.15 192.031C4149.72 179.713 4164.55 170.16 4181.65 163.372C4198.74 156.584 4217.47 153.191 4237.83 153.191C4257.94 153.191 4276.42 156.584 4293.27 163.372C4310.36 169.908 4325.19 179.336 4337.76 191.654C4350.58 203.721 4360.39 217.925 4367.18 234.266C4374.22 250.607 4377.74 268.581 4377.74 288.19C4377.74 307.799 4374.22 325.774 4367.18 342.115C4360.39 358.456 4350.58 372.785 4337.76 385.104C4325.19 397.171 4310.36 406.598 4293.27 413.386C4276.42 419.922 4257.94 423.19 4237.83 423.19ZM4237.83 389.629C4252.41 389.629 4265.86 387.115 4278.18 382.087C4290.75 377.059 4301.56 370.02 4310.61 360.97C4319.91 351.668 4327.08 340.858 4332.11 328.54C4337.39 316.221 4340.03 302.771 4340.03 288.19C4340.03 273.609 4337.39 260.16 4332.11 247.841C4327.08 235.523 4319.91 224.838 4310.61 215.788C4301.56 206.487 4290.75 199.322 4278.18 194.294C4265.86 189.266 4252.41 186.752 4237.83 186.752C4223 186.752 4209.3 189.266 4196.73 194.294C4184.41 199.322 4173.6 206.487 4164.3 215.788C4155 224.838 4147.71 235.523 4142.43 247.841C4137.4 260.16 4134.89 273.609 4134.89 288.19C4134.89 302.771 4137.4 316.221 4142.43 328.54C4147.71 340.858 4155 351.668 4164.3 360.97C4173.6 370.02 4184.41 377.059 4196.73 382.087C4209.3 387.115 4223 389.629 4237.83 389.629ZM4438.69 420.174V156.207H4469.62L4588.02 355.69H4571.43L4688.33 156.207H4719.25L4719.63 420.174H4683.43L4683.05 213.149H4691.73L4587.65 388.121H4570.3L4465.47 213.149H4474.9V420.174H4438.69Z" fill="white"/>
</svg>
